HIERARCHY
ROOT mixamorig:Hips
{
	OFFSET 0.000000 87.162163 2.265141
	CHANNELS 6 Xposition Yposition Zposition Xrotation Yrotation Zrotation
	JOINT mixamorig:Spine
	{
		OFFSET 0.000000 7.848404 3.918341
		CHANNELS 3 Xrotation Yrotation Zrotation
		JOINT mixamorig:Spine1
		{
			OFFSET -0.000000 11.439644 0.688892
			CHANNELS 3 Xrotation Yrotation Zrotation
			JOINT mixamorig:Spine2
			{
				OFFSET 0.000000 13.053993 -1.801730
				CHANNELS 3 Xrotation Yrotation Zrotation
				JOINT mixamorig:Neck
				{
					OFFSET 0.000000 14.136909 -5.258943
					CHANNELS 3 Xrotation Yrotation Zrotation
					JOINT mixamorig:Head
					{
						OFFSET -0.000000 10.430710 -0.827983
						CHANNELS 3 Xrotation Yrotation Zrotation
						JOINT mixamorig:HeadTop_End
						{
							OFFSET 0.000000 21.740402 -0.604783
							CHANNELS 3 Xrotation Yrotation Zrotation
							End Site
							{
								OFFSET 0.000000 25.832031 -0.000000
							}
						}
						JOINT mixamorig:Visor1
						{
							OFFSET -0.003251 25.655350 16.551157
							CHANNELS 3 Xrotation Yrotation Zrotation
							End Site
							{
								OFFSET 0.000000 25.832031 0.000000
							}
						}
						JOINT mixamorig:HairMidA1
						{
							OFFSET -0.001033 31.569519 8.438098
							CHANNELS 3 Xrotation Yrotation Zrotation
							End Site
							{
								OFFSET 0.000000 25.832016 -0.000000
							}
						}
						JOINT mixamorig:HairMidB1
						{
							OFFSET 0.003633 33.293411 -8.388910
							CHANNELS 3 Xrotation Yrotation Zrotation
							End Site
							{
								OFFSET 0.000000 25.832031 0.000000
							}
						}
						JOINT mixamorig:HairMidC1
						{
							OFFSET 0.006163 27.975342 -17.374311
							CHANNELS 3 Xrotation Yrotation Zrotation
							End Site
							{
								OFFSET 0.000000 25.832016 0.000000
							}
						}
						JOINT mixamorig:HairMidD1
						{
							OFFSET 0.007279 17.872238 -21.168732
							CHANNELS 3 Xrotation Yrotation Zrotation
							End Site
							{
								OFFSET 0.000000 25.832031 0.000000
							}
						}
						JOINT mixamorig:HairMidE1
						{
							OFFSET 4.865269 3.498810 -14.368998
							CHANNELS 3 Xrotation Yrotation Zrotation
							End Site
							{
								OFFSET 0.000000 25.832016 0.000000
							}
						}
						JOINT mixamorig:HairMidF1
						{
							OFFSET -4.854524 3.498764 -14.371698
							CHANNELS 3 Xrotation Yrotation Zrotation
							End Site
							{
								OFFSET 0.000000 25.832031 0.000000
							}
						}
						JOINT mixamorig:HairLeftA1
						{
							OFFSET 14.859479 25.730682 2.624092
							CHANNELS 3 Xrotation Yrotation Zrotation
							End Site
							{
								OFFSET 0.000000 25.832016 -0.000000
							}
						}
						JOINT mixamorig:HairLeftB1
						{
							OFFSET 12.159076 29.273544 -8.730730
							CHANNELS 3 Xrotation Yrotation Zrotation
							End Site
							{
								OFFSET 0.000000 25.832031 0.000000
							}
						}
						JOINT mixamorig:HairLeftC1
						{
							OFFSET 15.254454 15.944077 2.910579
							CHANNELS 3 Xrotation Yrotation Zrotation
							End Site
							{
								OFFSET 0.000000 25.832031 -0.000000
							}
						}
						JOINT mixamorig:HairLeftD1
						{
							OFFSET 15.641331 18.421539 -7.552444
							CHANNELS 3 Xrotation Yrotation Zrotation
							End Site
							{
								OFFSET 0.000000 25.832016 0.000000
							}
						}
						JOINT mixamorig:HairLeftE1
						{
							OFFSET 9.271540 17.899170 -18.316099
							CHANNELS 3 Xrotation Yrotation Zrotation
							End Site
							{
								OFFSET 0.000000 25.832016 0.000000
							}
						}
						JOINT mixamorig:HairLeftF1
						{
							OFFSET 10.743909 4.937805 -9.667402
							CHANNELS 3 Xrotation Yrotation Zrotation
							End Site
							{
								OFFSET 0.000000 25.832016 0.000000
							}
						}
						JOINT mixamorig:HairRightA1
						{
							OFFSET -14.858240 25.730515 2.615833
							CHANNELS 3 Xrotation Yrotation Zrotation
							End Site
							{
								OFFSET 0.000000 25.832031 -0.000000
							}
						}
						JOINT mixamorig:HairRightB1
						{
							OFFSET -12.151567 29.273392 -8.737486
							CHANNELS 3 Xrotation Yrotation Zrotation
							End Site
							{
								OFFSET 0.000000 25.832031 0.000000
							}
						}
						JOINT mixamorig:HairRightC1
						{
							OFFSET -15.253256 15.943893 2.902101
							CHANNELS 3 Xrotation Yrotation Zrotation
							End Site
							{
								OFFSET 0.000000 25.832031 -0.000000
							}
						}
						JOINT mixamorig:HairRightD1
						{
							OFFSET -15.634346 18.421341 -7.561136
							CHANNELS 3 Xrotation Yrotation Zrotation
							End Site
							{
								OFFSET 0.000000 25.832031 0.000000
							}
						}
						JOINT mixamorig:HairRightE1
						{
							OFFSET -9.258568 17.899063 -18.321249
							CHANNELS 3 Xrotation Yrotation Zrotation
							End Site
							{
								OFFSET 0.000000 25.832031 0.000000
							}
						}
						JOINT mixamorig:HairRightF1
						{
							OFFSET -10.735586 4.937683 -9.673372
							CHANNELS 3 Xrotation Yrotation Zrotation
							End Site
							{
								OFFSET 0.000000 25.832016 0.000000
							}
						}
					}
				}
				JOINT mixamorig:LeftShoulder
				{
					OFFSET 4.765166 7.323875 -1.972899
					CHANNELS 3 Xrotation Yrotation Zrotation
					JOINT mixamorig:LeftArm
					{
						OFFSET 8.083765 0.939484 -2.176468
						CHANNELS 3 Xrotation Yrotation Zrotation
						JOINT mixamorig:LeftForeArm
						{
							OFFSET 31.292164 0.000000 -0.000001
							CHANNELS 3 Xrotation Yrotation Zrotation
							JOINT mixamorig:LeftHand
							{
								OFFSET 31.723660 0.000000 -0.000001
								CHANNELS 3 Xrotation Yrotation Zrotation
								JOINT mixamorig:LeftHandThumb1
								{
									OFFSET 2.902626 -2.560440 4.416488
									CHANNELS 3 Xrotation Yrotation Zrotation
									JOINT mixamorig:LeftHandThumb2
									{
										OFFSET 2.339828 -1.345810 1.355842
										CHANNELS 3 Xrotation Yrotation Zrotation
										JOINT mixamorig:LeftHandThumb3
										{
											OFFSET 2.219818 -1.276772 1.286309
											CHANNELS 3 Xrotation Yrotation Zrotation
											JOINT mixamorig:LeftHandThumb4
											{
												OFFSET 2.285744 -1.314713 1.324502
												CHANNELS 3 Xrotation Yrotation Zrotation
												End Site
												{
													OFFSET 2.285744 -1.314705 1.324502
												}
											}
										}
									}
								}
								JOINT mixamorig:LeftHandIndex1
								{
									OFFSET 8.585075 -0.644569 3.119858
									CHANNELS 3 Xrotation Yrotation Zrotation
									JOINT mixamorig:LeftHandIndex2
									{
										OFFSET 3.348534 0.000000 0.000030
										CHANNELS 3 Xrotation Yrotation Zrotation
										JOINT mixamorig:LeftHandIndex3
										{
											OFFSET 3.314537 0.000008 0.000047
											CHANNELS 3 Xrotation Yrotation Zrotation
											JOINT mixamorig:LeftHandIndex4
											{
												OFFSET 2.937866 0.000000 0.000000
												CHANNELS 3 Xrotation Yrotation Zrotation
												End Site
												{
													OFFSET 2.937874 0.000000 0.000000
												}
											}
										}
									}
								}
								JOINT mixamorig:LeftHandMiddle1
								{
									OFFSET 8.140663 -0.002594 -0.000072
									CHANNELS 3 Xrotation Yrotation Zrotation
									JOINT mixamorig:LeftHandMiddle2
									{
										OFFSET 4.166290 -0.000015 0.000030
										CHANNELS 3 Xrotation Yrotation Zrotation
										JOINT mixamorig:LeftHandMiddle3
										{
											OFFSET 3.018105 0.000053 0.000032
											CHANNELS 3 Xrotation Yrotation Zrotation
											JOINT mixamorig:LeftHandMiddle4
											{
												OFFSET 4.093719 0.000000 -0.000000
												CHANNELS 3 Xrotation Yrotation Zrotation
												End Site
												{
													OFFSET 4.093719 0.000000 -0.000000
												}
											}
										}
									}
								}
								JOINT mixamorig:LeftHandRing1
								{
									OFFSET 8.587761 -0.034004 -2.884224
									CHANNELS 3 Xrotation Yrotation Zrotation
									JOINT mixamorig:LeftHandRing2
									{
										OFFSET 3.671196 0.000023 0.000002
										CHANNELS 3 Xrotation Yrotation Zrotation
										JOINT mixamorig:LeftHandRing3
										{
											OFFSET 2.728828 0.000015 0.000020
											CHANNELS 3 Xrotation Yrotation Zrotation
											JOINT mixamorig:LeftHandRing4
											{
												OFFSET 3.622383 0.000000 -0.000000
												CHANNELS 3 Xrotation Yrotation Zrotation
												End Site
												{
													OFFSET 3.622383 0.000000 -0.000000
												}
											}
										}
									}
								}
								JOINT mixamorig:LeftHandPinky1
								{
									OFFSET 7.870621 -0.677841 -5.213132
									CHANNELS 3 Xrotation Yrotation Zrotation
									JOINT mixamorig:LeftHandPinky2
									{
										OFFSET 3.068542 0.000000 0.000007
										CHANNELS 3 Xrotation Yrotation Zrotation
										JOINT mixamorig:LeftHandPinky3
										{
											OFFSET 2.395981 0.000023 0.000042
											CHANNELS 3 Xrotation Yrotation Zrotation
											JOINT mixamorig:LeftHandPinky4
											{
												OFFSET 2.849014 0.000000 0.000000
												CHANNELS 3 Xrotation Yrotation Zrotation
												End Site
												{
													OFFSET 2.849014 0.000000 -0.000000
												}
											}
										}
									}
								}
							}
							JOINT mixamorig:Left_Sleeve
							{
								OFFSET 19.653255 0.000000 -0.000001
								CHANNELS 3 Xrotation Yrotation Zrotation
								End Site
								{
									OFFSET 25.688454 0.000000 -0.000001
								}
							}
						}
					}
				}
				JOINT mixamorig:Whistle0
				{
					OFFSET -0.000105 11.453896 -0.009937
					CHANNELS 3 Xrotation Yrotation Zrotation
					JOINT mixamorig:Whistle1
					{
						OFFSET -0.002040 -6.349861 7.479822
						CHANNELS 3 Xrotation Yrotation Zrotation
						JOINT mixamorig:Whistle2
						{
							OFFSET -0.001261 -8.217644 4.717566
							CHANNELS 3 Xrotation Yrotation Zrotation
							End Site
							{
								OFFSET -0.001261 -8.217644 4.717560
							}
						}
					}
				}
				JOINT mixamorig:Right_Breast1
				{
					OFFSET -5.315914 3.102715 3.080552
					CHANNELS 3 Xrotation Yrotation Zrotation
					End Site
					{
						OFFSET 0.000000 10.519180 0.000000
					}
				}
				JOINT mixamorig:Left_Breast1
				{
					OFFSET 5.314172 3.102776 3.083506
					CHANNELS 3 Xrotation Yrotation Zrotation
					End Site
					{
						OFFSET 0.000000 10.519180 0.000000
					}
				}
				JOINT mixamorig:Hood0
				{
					OFFSET 0.001381 14.430473 -5.423190
					CHANNELS 3 Xrotation Yrotation Zrotation
					JOINT mixamorig:Hood1
					{
						OFFSET 0.001672 -5.553818 -5.895096
						CHANNELS 3 Xrotation Yrotation Zrotation
						JOINT mixamorig:Hood2
						{
							OFFSET -0.000161 -8.380455 0.763632
							CHANNELS 3 Xrotation Yrotation Zrotation
							End Site
							{
								OFFSET -0.000161 -8.380463 0.763632
							}
						}
					}
				}
				JOINT mixamorig:RightShoulder
				{
					OFFSET -4.765170 7.323799 -1.972894
					CHANNELS 3 Xrotation Yrotation Zrotation
					JOINT mixamorig:RightArm
					{
						OFFSET -8.083729 0.940002 -2.176473
						CHANNELS 3 Xrotation Yrotation Zrotation
						JOINT mixamorig:RightForeArm
						{
							OFFSET -31.292198 0.000008 -0.000001
							CHANNELS 3 Xrotation Yrotation Zrotation
							JOINT mixamorig:RightHand
							{
								OFFSET -31.723610 -0.000015 0.000001
								CHANNELS 3 Xrotation Yrotation Zrotation
								JOINT mixamorig:RightHandThumb1
								{
									OFFSET -2.902702 -2.560997 4.416483
									CHANNELS 3 Xrotation Yrotation Zrotation
									JOINT mixamorig:RightHandThumb2
									{
										OFFSET -2.339806 -1.346001 1.355854
										CHANNELS 3 Xrotation Yrotation Zrotation
										JOINT mixamorig:RightHandThumb3
										{
											OFFSET -2.219788 -1.275993 1.286288
											CHANNELS 3 Xrotation Yrotation Zrotation
											JOINT mixamorig:RightHandThumb4
											{
												OFFSET -2.285805 -1.315025 1.324511
												CHANNELS 3 Xrotation Yrotation Zrotation
												End Site
												{
													OFFSET -2.285828 -1.314980 1.324511
												}
											}
										}
									}
								}
								JOINT mixamorig:RightHandIndex1
								{
									OFFSET -8.585098 -0.644997 3.119853
									CHANNELS 3 Xrotation Yrotation Zrotation
									JOINT mixamorig:RightHandIndex2
									{
										OFFSET -3.348602 0.000000 0.000030
										CHANNELS 3 Xrotation Yrotation Zrotation
										JOINT mixamorig:RightHandIndex3
										{
											OFFSET -3.314499 0.000000 0.000050
											CHANNELS 3 Xrotation Yrotation Zrotation
											JOINT mixamorig:RightHandIndex4
											{
												OFFSET -2.937897 0.000000 0.000000
												CHANNELS 3 Xrotation Yrotation Zrotation
												End Site
												{
													OFFSET -2.937897 0.000000 0.000000
												}
											}
										}
									}
								}
								JOINT mixamorig:RightHandMiddle1
								{
									OFFSET -8.140701 -0.002998 -0.000071
									CHANNELS 3 Xrotation Yrotation Zrotation
									JOINT mixamorig:RightHandMiddle2
									{
										OFFSET -4.166290 0.000000 0.000030
										CHANNELS 3 Xrotation Yrotation Zrotation
										JOINT mixamorig:RightHandMiddle3
										{
											OFFSET -3.018105 0.000000 0.000032
											CHANNELS 3 Xrotation Yrotation Zrotation
											JOINT mixamorig:RightHandMiddle4
											{
												OFFSET -4.093704 0.000000 0.000000
												CHANNELS 3 Xrotation Yrotation Zrotation
												End Site
												{
													OFFSET -4.093704 0.000000 0.000000
												}
											}
										}
									}
								}
								JOINT mixamorig:RightHandRing1
								{
									OFFSET -8.587799 -0.033997 -2.884227
									CHANNELS 3 Xrotation Yrotation Zrotation
									JOINT mixamorig:RightHandRing2
									{
										OFFSET -3.671211 0.000000 0.000010
										CHANNELS 3 Xrotation Yrotation Zrotation
										JOINT mixamorig:RightHandRing3
										{
											OFFSET -2.728790 0.000000 0.000020
											CHANNELS 3 Xrotation Yrotation Zrotation
											JOINT mixamorig:RightHandRing4
											{
												OFFSET -3.622398 0.000000 0.000000
												CHANNELS 3 Xrotation Yrotation Zrotation
												End Site
												{
													OFFSET -3.622398 0.000000 0.000000
												}
											}
										}
									}
								}
								JOINT mixamorig:RightHandPinky1
								{
									OFFSET -7.870697 -0.678001 -5.213128
									CHANNELS 3 Xrotation Yrotation Zrotation
									JOINT mixamorig:RightHandPinky2
									{
										OFFSET -3.068512 0.000000 0.000000
										CHANNELS 3 Xrotation Yrotation Zrotation
										JOINT mixamorig:RightHandPinky3
										{
											OFFSET -2.395988 0.000000 0.000050
											CHANNELS 3 Xrotation Yrotation Zrotation
											JOINT mixamorig:RightHandPinky4
											{
												OFFSET -2.848999 0.000000 0.000000
												CHANNELS 3 Xrotation Yrotation Zrotation
												End Site
												{
													OFFSET -2.848999 0.000000 0.000000
												}
											}
										}
									}
								}
							}
							JOINT mixamorig:Right_Sleeve
							{
								OFFSET -19.653206 -0.000015 0.000001
								CHANNELS 3 Xrotation Yrotation Zrotation
								End Site
								{
									OFFSET -25.688393 0.000000 0.000000
								}
							}
						}
					}
				}
			}
		}
		JOINT mixamorig:Belly1
		{
			OFFSET 0.212380 1.592979 3.163679
			CHANNELS 3 Xrotation Yrotation Zrotation
			End Site
			{
				OFFSET 0.000000 7.504410 0.000000
			}
		}
	}
	JOINT mixamorig:LeftUpLeg
	{
		OFFSET 11.866977 -9.376381 -2.439418
		CHANNELS 3 Xrotation Yrotation Zrotation
		JOINT mixamorig:LeftLeg
		{
			OFFSET 0.000000 -32.909191 0.854440
			CHANNELS 3 Xrotation Yrotation Zrotation
			JOINT mixamorig:LeftFoot
			{
				OFFSET 0.000001 -31.923828 -3.032456
				CHANNELS 3 Xrotation Yrotation Zrotation
				JOINT mixamorig:LeftToeBase
				{
					OFFSET 0.000006 -12.942684 13.909951
					CHANNELS 3 Xrotation Yrotation Zrotation
					JOINT mixamorig:LeftToe_End
					{
						OFFSET 0.000011 0.111664 5.998963
						CHANNELS 3 Xrotation Yrotation Zrotation
						End Site
						{
							OFFSET -0.000007 0.111664 5.998962
						}
					}
				}
			}
		}
		JOINT mixamorig:Left_Butt1
		{
			OFFSET -6.630216 1.454788 -3.127206
			CHANNELS 3 Xrotation Yrotation Zrotation
			End Site
			{
				OFFSET -0.459490 18.609993 0.756214
			}
		}
		JOINT mixamorig:Left_ShortSleeve
		{
			OFFSET 0.000000 -15.493900 0.402277
			CHANNELS 3 Xrotation Yrotation Zrotation
			End Site
			{
				OFFSET 0.000000 -18.624737 0.483565
			}
		}
	}
	JOINT mixamorig:RightUpLeg
	{
		OFFSET -11.867000 -9.376366 -2.439418
		CHANNELS 3 Xrotation Yrotation Zrotation
		JOINT mixamorig:RightLeg
		{
			OFFSET -0.000001 -32.909199 0.854441
			CHANNELS 3 Xrotation Yrotation Zrotation
			JOINT mixamorig:RightFoot
			{
				OFFSET 0.000001 -31.923798 -3.032454
				CHANNELS 3 Xrotation Yrotation Zrotation
				JOINT mixamorig:RightToeBase
				{
					OFFSET 0.000008 -12.942620 13.910019
					CHANNELS 3 Xrotation Yrotation Zrotation
					JOINT mixamorig:RightToe_End
					{
						OFFSET -0.000007 0.111696 5.998960
						CHANNELS 3 Xrotation Yrotation Zrotation
						End Site
						{
							OFFSET -0.000012 0.111696 5.998960
						}
					}
				}
			}
		}
		JOINT mixamorig:Right_Butt1
		{
			OFFSET 6.630730 1.454857 -3.127160
			CHANNELS 3 Xrotation Yrotation Zrotation
			End Site
			{
				OFFSET 0.459464 18.610138 0.756796
			}
		}
		JOINT mixamorig:Right_ShortSleeve
		{
			OFFSET -0.000001 -15.493950 0.402279
			CHANNELS 3 Xrotation Yrotation Zrotation
			End Site
			{
				OFFSET 0.000000 -18.624908 0.483570
			}
		}
	}
}
MOTION
Frames: 2
Frame Time: 0.016667
-0.465545 78.847198 2.256982 -8.586060 -13.048560 1.136570 -0.767166 1.945671 -3.596312 8.737512 0.082708 -0.966353 8.741234 0.148171 -0.949499 -1.671231 1.683761 0.533474 -18.043927 10.852437 -4.668318 0.000001 -0.000000 0.000001 0.000001 -0.000000 0.000001 0.000001 -0.000000 0.000001 0.000001 -0.000000 0.000001 0.000001 -0.000000 0.000001 0.000001 -0.000000 0.000001 0.000001 -0.000000 0.000001 0.000001 -0.000000 0.000001 0.000001 -0.000000 0.000001 0.000001 -0.000000 0.000001 0.000001 -0.000000 0.000001 0.000001 -0.000000 0.000001 0.000001 -0.000000 0.000001 0.000001 -0.000000 0.000001 0.000001 -0.000000 0.000001 0.000001 -0.000000 0.000001 0.000001 0.000000 0.000001 0.000001 -0.000000 0.000001 0.000001 -0.000000 0.000001 0.000001 -0.000000 0.000001 0.963210 -5.156266 13.309459 71.220404 -35.970546 -48.794656 -0.000046 -107.723394 -0.000074 4.190584 -3.951734 52.456693 -3.023122 17.454815 11.973821 3.931648 7.954078 0.733703 -0.583236 1.579842 2.534907 -0.000003 0.000000 0.000005 0.003802 -0.230106 1.913334 0.203762 1.659030 -13.992484 0.203573 1.657927 -13.992279 -0.000002 -0.000003 0.000002 0.001626 -0.150862 1.250921 0.220644 1.725353 -14.566473 0.228113 1.753806 -14.816938 0.000001 -0.000002 0.000003 0.000162 -0.049599 0.401657 0.246404 1.821974 -15.399471 0.254631 1.851193 -15.659517 -0.000001 -0.000002 -0.000001 0.000946 4.085255 0.241090 0.271105 -2.144572 -16.670139 0.271799 1.910715 -16.181893 -0.000001 0.000001 -0.000001 -0.000001 -0.000003 -0.000001 0.000009 -0.000000 0.000001 -0.000002 -0.000000 -0.000001 -0.000002 -0.000001 0.000001 0.000001 -0.000001 0.000000 0.000001 -0.000001 0.000000 0.000002 -0.000000 -0.000000 0.000003 0.000001 -0.000000 0.000002 0.000001 -0.000000 0.762447 5.560950 0.562723 70.628951 0.848505 58.167858 0.000012 124.661198 -0.000070 18.317143 -6.187123 -4.507454 -2.540606 -23.396333 -9.729803 4.638852 -8.638588 -0.195325 -1.285213 0.135082 -2.110006 -0.000001 0.000001 0.000001 0.004876 -0.258147 2.145213 0.040292 -0.745664 6.172237 0.040185 -0.744387 6.172219 -0.000000 0.000002 -0.000004 0.012034 -0.406399 3.372957 0.057509 -0.890499 7.379545 0.057894 -0.893343 7.409939 -0.000002 -0.000003 0.000001 0.025624 -0.593482 4.925216 0.083471 -1.072282 8.897059 0.083656 -1.073229 8.910748 0.000001 0.000002 0.000000 0.040659 -0.747724 6.207871 0.107188 -1.214059 10.078146 0.106936 -1.211679 10.078158 -0.000004 0.000002 0.000003 0.000002 0.000003 0.000000 0.000001 0.000001 0.000000 -6.941016 1.453904 2.307177 45.551006 8.716398 4.777517 -26.971252 11.127302 -13.636935 -0.000008 0.000002 -0.000003 -0.000000 -0.000001 -0.000000 -0.002303 0.187827 -0.004883 0.000000 -0.000001 -0.000000 -12.216353 -1.191993 -10.173829 50.266832 -4.541619 -7.356653 -28.730501 -4.462228 14.734308 -0.570516 0.000002 -0.000001 -0.000000 -0.000000 0.000000 -0.002309 -0.188066 0.004877 -0.000002 -0.000001 0.000000 
-0.359439 78.361252 2.020532 -9.663491 -12.903782 0.506965 0.238583 2.138295 -3.388339 9.034430 0.139521 -0.678861 9.036263 0.204617 -0.657736 -2.023974 1.672552 0.401815 -18.612998 10.672168 -4.662134 -0.000000 0.000000 -0.000001 -0.000000 0.000000 -0.000001 0.000000 -0.000000 -0.000001 -0.000000 0.000000 -0.000001 -0.000000 0.000000 -0.000001 -0.000000 0.000000 -0.000001 -0.000000 0.000000 -0.000001 -0.000000 0.000000 -0.000001 -0.000000 -0.000000 -0.000001 -0.000000 0.000000 -0.000001 -0.000000 0.000000 -0.000001 -0.000000 -0.000000 -0.000000 -0.000000 0.000000 -0.000001 -0.000000 0.000000 -0.000001 -0.000000 0.000000 -0.000001 -0.000000 0.000000 -0.000001 0.000000 0.000000 -0.000000 -0.000000 -0.000000 -0.000000 -0.000000 0.000000 -0.000001 -0.000000 0.000000 -0.000001 0.936124 -4.984487 13.146530 70.539701 -36.119164 -48.052973 -0.000018 -107.748433 -0.000050 5.186980 -4.336981 52.624145 -3.023123 17.454811 11.973824 3.931657 7.954081 0.733708 -0.583239 1.579839 2.534911 -0.000006 -0.000000 0.000001 0.003671 -0.225686 1.876686 0.204156 1.660573 -14.006140 0.203988 1.659513 -14.005907 -0.000004 -0.000000 -0.000002 0.001541 -0.146473 1.214315 0.221040 1.726946 -14.580137 0.228523 1.755300 -14.829862 -0.000000 -0.000002 -0.000002 0.000157 -0.045194 0.364766 0.246826 1.823490 -15.412556 0.255039 1.852618 -15.671850 0.000000 -0.000004 0.000003 0.003642 4.089679 0.203668 0.271505 -2.143163 -16.682262 0.272185 1.912111 -16.194046 -0.000003 -0.000001 0.000002 -0.000000 -0.000000 -0.000002 0.000009 0.000000 0.000001 -0.000002 0.000000 -0.000001 -0.000000 0.000000 0.000000 0.000000 0.000000 0.000000 0.000000 0.000000 0.000000 0.000003 0.000001 -0.000001 -0.000002 -0.000000 0.000001 0.000001 -0.000001 0.000000 0.766960 5.750691 0.762877 71.893431 -1.665184 59.352131 0.000035 127.306748 -0.000078 18.314893 -6.172633 -3.377680 -2.540623 -23.396337 -9.729805 4.638851 -8.638586 -0.195320 -1.285206 0.135080 -2.110006 0.000001 0.000000 -0.000004 0.005166 -0.265826 2.208724 0.040685 -0.749502 6.203991 0.040600 -0.748200 6.203981 -0.000001 0.000002 0.000001 0.012450 -0.413420 3.431017 0.057955 -0.894097 7.409531 0.058341 -0.896808 7.438838 -0.000002 -0.000003 0.000001 0.026156 -0.599741 4.976974 0.083966 -1.075469 8.923750 0.084130 -1.076320 8.936541 0.000001 0.000003 0.000001 0.041271 -0.753385 6.254906 0.107664 -1.216859 10.101699 0.107437 -1.214480 10.101677 -0.000003 0.000001 0.000002 -0.000002 0.000000 0.000002 -0.000001 -0.000000 0.000000 -7.069043 1.696309 2.950115 47.803767 8.998031 4.902909 -28.060198 10.630755 -14.065423 -0.000127 0.000003 0.000003 -0.000000 -0.000000 0.000000 -0.002303 0.187829 -0.004882 -0.000001 0.000001 0.000000 -11.855221 -1.100355 -9.669290 51.748061 -4.839172 -7.523468 -29.438955 -4.680055 14.948755 -0.583399 0.000003 0.000000 -0.000000 -0.000000 0.000000 -0.002307 -0.188067 0.004877 0.000002 -0.000002 -0.000000 
